STARTFONT 2.1
FONT -WRI-Mathematica5-Bold-R-Normal--16-160-75-75-p-80-Adobe-FontSpecific
SIZE 16 75 75
FONTBOUNDINGBOX 50 34 -3 -13
STARTPROPERTIES 16
FOUNDRY "WRI"
FAMILY_NAME "Mathematica5"
WEIGHT_NAME "Bold"
SLANT "R"
SETWIDTH_NAME "Normal"
PIXEL_SIZE 16
POINT_SIZE 160
RESOLUTION_X 75
RESOLUTION_Y 75
SPACING "p"
AVERAGE_WIDTH 80
CHARSET_REGISTRY "Adobe"
CHARSET_ENCODING "FontSpecific"
FONT_DESCENT 13
FONT_ASCENT 21
DEFAULT_CHAR 32
ENDPROPERTIES
CHARS 228
STARTCHAR Villa
ENCODING 1
SWIDTH 627 0
DWIDTH 10 0
BBX 9 14 1 -3
BITMAP
0a00
1700
3f00
4100
fd00
5980
5d00
5500
5600
3e00
1c00
3c00
3c00
5400
ENDCHAR
STARTCHAR Kooz
ENCODING 2
SWIDTH 746 0
DWIDTH 12 0
BBX 11 13 1 -2
BITMAP
2e00
f600
6500
3780
5f00
ebc0
bc20
c3a0
c0a0
c020
c020
41a0
0060
ENDCHAR
STARTCHAR Andy
ENCODING 3
SWIDTH 1000 0
DWIDTH 16 0
BBX 12 12 1 0
BITMAP
c000
8200
0200
c200
ffe0
c640
cf80
c180
c180
8600
4830
07c0
ENDCHAR
STARTCHAR Spooky
ENCODING 4
SWIDTH 535 0
DWIDTH 9 0
BBX 9 10 0 0
BITMAP
4100
6300
3700
3b00
7e80
fe00
4b80
7f00
6a00
0200
ENDCHAR
STARTCHAR space
ENCODING 32
SWIDTH 189 0
DWIDTH 3 0
BBX 0 0 0 0
BITMAP
ENDCHAR
STARTCHAR BckspcKey
ENCODING 33
SWIDTH 1981 0
DWIDTH 32 0
BBX 30 12 1 -2
BITMAP
fffffffc
80000004
b192cc74
aa552a8c
aa190a84
ba108a84
aa184c84
a6182884
a655288c
b992c874
80000004
fffffffc
ENDCHAR
STARTCHAR HomeKey
ENCODING 34
SWIDTH 1603 0
DWIDTH 26 0
BBX 24 12 1 -2
BITMAP
ffffff
800001
800001
a578fd
a638e1
ba34fd
a63561
a63361
a5527d
81c001
800001
ffffff
ENDCHAR
STARTCHAR PgupKey
ENCODING 35
SWIDTH 1444 0
DWIDTH 23 0
BBX 21 12 1 -2
BITMAP
fffff8
800008
b392c8
aa52a8
aa5298
b2d2e8
a25288
a25288
a25288
a3cc88
800008
fffff8
ENDCHAR
STARTCHAR PgdwnKey
ENCODING 36
SWIDTH 1999 0
DWIDTH 32 0
BBX 30 12 1 -2
BITMAP
fffffffc
80000004
b19d2314
aa52b394
a652b594
bad2b554
a252cd54
a252cd34
a25c4934
81800004
80000004
fffffffc
ENDCHAR
STARTCHAR EndKey
ENCODING 37
SWIDTH 1187 0
DWIDTH 19 0
BBX 17 12 1 -2
BITMAP
ffff80
800080
800080
ba5c80
a35280
bad280
a2d280
a2d280
ba5c80
800080
800080
ffff80
ENDCHAR
STARTCHAR FilledHeart
ENCODING 38
SWIDTH 605 0
DWIDTH 10 0
BBX 8 9 1 0
BITMAP
66
ff
ff
ff
7e
7e
3c
18
08
ENDCHAR
STARTCHAR Euro
ENCODING 39
SWIDTH 500 0
DWIDTH 8 0
BBX 8 11 0 0
BITMAP
1e
33
31
61
60
f2
60
60
21
32
1c
ENDCHAR
STARTCHAR CapitalOE
ENCODING 40
SWIDTH 1000 0
DWIDTH 16 0
BBX 15 11 1 0
BITMAP
1ff8
3388
6388
e3a0
e3a0
e3e0
e3a0
e3a2
6384
338c
1ff8
ENDCHAR
STARTCHAR OE
ENCODING 41
SWIDTH 722 0
DWIDTH 12 0
BBX 11 8 0 0
BITMAP
39c0
4660
c660
c7e0
c600
c600
6720
39c0
ENDCHAR
STARTCHAR ABar
ENCODING 42
SWIDTH 500 0
DWIDTH 8 0
BBX 8 10 0 0
BITMAP
3e
00
3c
66
66
1e
26
46
ee
77
ENDCHAR
STARTCHAR ACup
ENCODING 43
SWIDTH 500 0
DWIDTH 8 0
BBX 8 11 0 0
BITMAP
22
1c
00
3c
66
66
0e
36
46
ee
77
ENDCHAR
STARTCHAR CapitalABar
ENCODING 44
SWIDTH 722 0
DWIDTH 12 0
BBX 11 13 0 0
BITMAP
3f00
0000
0400
0e00
0e00
0e00
1700
1300
2380
3f80
2180
41c0
e3e0
ENDCHAR
STARTCHAR CapitalACup
ENCODING 45
SWIDTH 722 0
DWIDTH 12 0
BBX 11 14 0 0
BITMAP
1100
0e00
0000
0400
0e00
0e00
0e00
1700
1300
2380
3f80
2180
41c0
e3e0
ENDCHAR
STARTCHAR CAcute
ENCODING 46
SWIDTH 444 0
DWIDTH 7 0
BBX 7 11 0 0
BITMAP
06
18
20
3c
66
c6
c0
c0
e0
62
3c
ENDCHAR
STARTCHAR CHacek
ENCODING 47
SWIDTH 444 0
DWIDTH 7 0
BBX 7 11 0 0
BITMAP
46
3c
00
3c
66
c6
c0
c0
e0
62
3c
ENDCHAR
STARTCHAR ScriptZero
ENCODING 48
SWIDTH 440 0
DWIDTH 7 0
BBX 7 11 1 0
BITMAP
0c
14
26
66
46
c6
c4
cc
c8
d0
60
ENDCHAR
STARTCHAR ScriptOne
ENCODING 49
SWIDTH 440 0
DWIDTH 7 0
BBX 6 11 0 0
BITMAP
04
1c
08
08
08
08
18
10
10
30
fc
ENDCHAR
STARTCHAR ScriptTwo
ENCODING 50
SWIDTH 440 0
DWIDTH 7 0
BBX 8 11 0 0
BITMAP
0e
31
01
01
02
04
08
10
20
fa
be
ENDCHAR
STARTCHAR ScriptThree
ENCODING 51
SWIDTH 519 0
DWIDTH 8 0
BBX 7 11 0 0
BITMAP
0e
12
02
02
1c
06
02
02
02
c4
f8
ENDCHAR
STARTCHAR ScriptFour
ENCODING 52
SWIDTH 519 0
DWIDTH 8 0
BBX 7 11 0 0
BITMAP
02
06
0e
14
24
4c
88
fe
18
18
18
ENDCHAR
STARTCHAR ScriptFive
ENCODING 53
SWIDTH 519 0
DWIDTH 8 0
BBX 8 11 0 0
BITMAP
0f
10
10
10
3c
06
02
02
06
c8
f0
ENDCHAR
STARTCHAR ScriptSix
ENCODING 54
SWIDTH 519 0
DWIDTH 8 0
BBX 9 11 0 0
BITMAP
0380
0c00
3000
6000
7c00
e600
c200
8200
8200
8400
7800
ENDCHAR
STARTCHAR ScriptSeven
ENCODING 55
SWIDTH 519 0
DWIDTH 8 0
BBX 7 11 2 0
BITMAP
06
fa
f4
0c
08
10
10
20
40
c0
c0
ENDCHAR
STARTCHAR ScriptEight
ENCODING 56
SWIDTH 519 0
DWIDTH 8 0
BBX 8 11 0 0
BITMAP
0e
13
31
32
1c
3c
46
82
82
c4
78
ENDCHAR
STARTCHAR ScriptNine
ENCODING 57
SWIDTH 519 0
DWIDTH 8 0
BBX 8 11 0 0
BITMAP
0e
11
21
41
41
63
3f
02
06
98
e0
ENDCHAR
STARTCHAR ODoubleAcute
ENCODING 58
SWIDTH 500 0
DWIDTH 8 0
BBX 8 11 0 0
BITMAP
39
37
4c
3c
66
c3
c3
c3
c3
66
3c
ENDCHAR
STARTCHAR CapitalODoubleAcute
ENCODING 59
SWIDTH 778 0
DWIDTH 12 0
BBX 11 14 1 0
BITMAP
0480
0d80
1a00
1f00
3180
61c0
e0e0
e0e0
e0e0
e0e0
e0e0
60c0
3180
1f00
ENDCHAR
STARTCHAR SHacek
ENCODING 60
SWIDTH 389 0
DWIDTH 6 0
BBX 6 11 0 0
BITMAP
c8
70
00
78
c8
e0
78
3c
8c
cc
b0
ENDCHAR
STARTCHAR CapitalSHacek
ENCODING 61
SWIDTH 556 0
DWIDTH 9 0
BBX 7 15 1 0
BITMAP
64
28
18
00
3a
46
c2
e0
78
3c
1e
86
86
c4
b8
ENDCHAR
STARTCHAR UDoubleAcute
ENCODING 62
SWIDTH 556 0
DWIDTH 9 0
BBX 9 11 0 0
BITMAP
1d00
1b00
2400
0000
e700
6300
6300
6300
6300
6300
3f80
ENDCHAR
STARTCHAR CapitalUDoubleAcute
ENCODING 63
SWIDTH 722 0
DWIDTH 12 0
BBX 11 15 0 0
BITMAP
0380
0580
0a00
0000
fde0
3840
3840
3840
3840
3840
3840
3840
3840
1c80
0f00
ENDCHAR
STARTCHAR HSlash
ENCODING 64
SWIDTH 555 0
DWIDTH 9 0
BBX 8 11 1 0
BITMAP
38
10
fc
30
26
2e
76
64
44
cd
ce
ENDCHAR
STARTCHAR ScriptCapA
ENCODING 65
SWIDTH 947 0
DWIDTH 15 0
BBX 14 11 0 0
BITMAP
07fc
08d8
1098
2118
1138
07d8
0218
0618
8418
881c
f018
ENDCHAR
STARTCHAR ScriptCapB
ENCODING 66
SWIDTH 806 0
DWIDTH 13 0
BBX 12 11 0 0
BITMAP
07e0
1b70
2630
4430
4c60
4fc0
0c60
1830
1830
2060
ffc0
ENDCHAR
STARTCHAR ScriptCapC
ENCODING 67
SWIDTH 604 0
DWIDTH 10 0
BBX 11 12 0 -1
BITMAP
0780
1860
3020
6040
4000
c000
c000
c000
c080
e080
6300
3c00
ENDCHAR
STARTCHAR ScriptCapD
ENCODING 68
SWIDTH 927 0
DWIDTH 15 0
BBX 14 11 0 0
BITMAP
03e0
0d38
1218
260c
260c
040c
0c0c
0c18
1818
7070
9fc0
ENDCHAR
STARTCHAR ScriptCapE
ENCODING 69
SWIDTH 644 0
DWIDTH 10 0
BBX 10 11 0 0
BITMAP
0f80
18c0
1880
1800
0700
3800
7040
e040
e040
f080
3f00
ENDCHAR
STARTCHAR ScriptCapF
ENCODING 70
SWIDTH 723 0
DWIDTH 12 0
BBX 13 12 0 -1
BITMAP
1ff8
2200
c600
8600
dfc0
0c00
0c00
1c00
1800
1800
3000
e000
ENDCHAR
STARTCHAR ScriptCapG
ENCODING 71
SWIDTH 768 0
DWIDTH 12 0
BBX 11 14 1 -3
BITMAP
0780
18c0
3040
60c0
6000
c7e0
c980
c180
c380
c580
7b00
8300
8600
f800
ENDCHAR
STARTCHAR ScriptCapH
ENCODING 72
SWIDTH 960 0
DWIDTH 15 0
BBX 16 12 1 0
BITMAP
0003
3f06
460c
8e0c
8c0c
8dfc
0e18
1c18
1818
1838
381c
6010
ENDCHAR
STARTCHAR ScriptCapI
ENCODING 73
SWIDTH 584 0
DWIDTH 9 0
BBX 10 11 1 0
BITMAP
1fc0
1200
0600
0600
0c00
0c00
0c00
1800
1800
1300
fc00
ENDCHAR
STARTCHAR ScriptCapJ
ENCODING 74
SWIDTH 792 0
DWIDTH 13 0
BBX 15 13 0 -2
BITMAP
01e2
023c
0430
0860
0860
04c0
00c0
00c0
00c0
41c0
8180
c300
3c00
ENDCHAR
STARTCHAR ScriptCapK
ENCODING 75
SWIDTH 844 0
DWIDTH 14 0
BBX 15 11 0 0
BITMAP
1f0c
6632
8640
8680
8f80
0d80
0cc0
18c0
18e0
3870
6020
ENDCHAR
STARTCHAR ScriptCapL
ENCODING 76
SWIDTH 800 0
DWIDTH 13 0
BBX 12 12 0 -1
BITMAP
01e0
0310
0330
0700
0600
0600
0600
0c00
0c00
1800
fc10
07e0
ENDCHAR
STARTCHAR ScriptCapM
ENCODING 77
SWIDTH 1203 0
DWIDTH 19 0
BBX 18 11 0 0
BITMAP
030040
0700c0
0780c0
0581c0
05c2c0
09c4c0
08c8c0
10f0c0
10e0c0
20e0c0
c00040
ENDCHAR
STARTCHAR ScriptCapN
ENCODING 78
SWIDTH 879 0
DWIDTH 14 0
BBX 15 11 0 0
BITMAP
0602
0e04
0e0c
0f08
1b08
1190
11d0
30d0
2070
6070
c060
ENDCHAR
STARTCHAR ScriptCapO
ENCODING 79
SWIDTH 779 0
DWIDTH 12 0
BBX 12 11 0 0
BITMAP
07c0
04e0
1830
3030
6030
c030
c060
c0e0
c0c0
6380
3e00
ENDCHAR
STARTCHAR ScriptCapP
ENCODING 80
SWIDTH 785 0
DWIDTH 13 0
BBX 12 11 0 0
BITMAP
0fc0
3460
4c30
8830
9820
78c0
1f00
3000
3000
7000
c000
ENDCHAR
STARTCHAR ScriptCapQ
ENCODING 81
SWIDTH 775 0
DWIDTH 12 0
BBX 12 12 0 -1
BITMAP
07c0
04e0
1830
6030
6030
c070
c060
dcc0
c780
6380
3de0
0040
ENDCHAR
STARTCHAR ScriptCapR
ENCODING 82
SWIDTH 747 0
DWIDTH 12 0
BBX 11 11 0 0
BITMAP
1fc0
2860
5860
9860
5980
5600
3300
3380
3180
20e0
4040
ENDCHAR
STARTCHAR ScriptCapS
ENCODING 83
SWIDTH 735 0
DWIDTH 12 0
BBX 11 11 0 0
BITMAP
03c0
0c60
1860
1c40
0e00
0780
00e0
4060
c040
e180
3e00
ENDCHAR
STARTCHAR ScriptCapT
ENCODING 84
SWIDTH 659 0
DWIDTH 11 0
BBX 14 11 0 0
BITMAP
1f0c
61f0
c300
c600
4600
0600
0c00
0c00
0c00
1800
3000
ENDCHAR
STARTCHAR ScriptCapU
ENCODING 85
SWIDTH 978 0
DWIDTH 16 0
BBX 16 11 0 0
BITMAP
0783
3b06
4706
860c
860c
4e0c
0c18
1c38
1c58
1f9c
1c18
ENDCHAR
STARTCHAR ScriptCapV
ENCODING 86
SWIDTH 921 0
DWIDTH 15 0
BBX 16 11 0 0
BITMAP
0f07
3303
6302
c304
4308
0310
01a0
01e0
01c0
0180
0100
ENDCHAR
STARTCHAR ScriptCapW
ENCODING 87
SWIDTH 1253 0
DWIDTH 20 0
BBX 21 11 0 0
BITMAP
020438
3e1c18
461c10
863c20
863c60
062c40
034c80
038d00
038e00
030e00
020c00
ENDCHAR
STARTCHAR ScriptCapX
ENCODING 88
SWIDTH 757 0
DWIDTH 12 0
BBX 12 12 0 0
BITMAP
0c30
1e70
0620
0640
0780
0300
0f00
1380
2180
41c0
c1e0
60c0
ENDCHAR
STARTCHAR ScriptCapY
ENCODING 89
SWIDTH 774 0
DWIDTH 12 0
BBX 14 13 0 -1
BITMAP
000c
3c38
1c38
0c70
0c70
0cf0
0d60
0e60
04e0
40c0
8180
c300
3c00
ENDCHAR
STARTCHAR ScriptCapZ
ENCODING 90
SWIDTH 915 0
DWIDTH 15 0
BBX 14 13 0 -2
BITMAP
0004
2070
0060
00c0
0180
0100
0200
0600
0c00
1800
fc08
0ff8
01f0
ENDCHAR
STARTCHAR RightTriangleLeft
ENCODING 91
SWIDTH 600 0
DWIDTH 10 0
BBX 7 11 2 0
BITMAP
02
04
04
0c
1c
1c
34
34
64
44
fc
ENDCHAR
STARTCHAR RightTriangleRight
ENCODING 92
SWIDTH 600 0
DWIDTH 10 0
BBX 6 11 2 0
BITMAP
80
80
80
c0
e0
e0
b0
b0
98
88
fc
ENDCHAR
STARTCHAR DoubleRightTriangle
ENCODING 93
SWIDTH 689 0
DWIDTH 11 0
BBX 11 11 0 0
BITMAP
0600
0a00
0a00
1b00
1b00
3b80
3b80
2a80
6ac0
7bc0
fbe0
ENDCHAR
STARTCHAR Female
ENCODING 94
SWIDTH 675 0
DWIDTH 11 0
BBX 7 11 2 0
BITMAP
38
c4
82
82
44
38
10
10
7c
10
10
ENDCHAR
STARTCHAR Male
ENCODING 95
SWIDTH 810 0
DWIDTH 13 0
BBX 11 11 1 0
BITMAP
0060
00e0
01a0
3d00
4200
8300
8100
8100
8100
4200
3c00
ENDCHAR
STARTCHAR NearlyEquals
ENCODING 96
SWIDTH 677 0
DWIDTH 11 0
BBX 8 14 1 -3
BITMAP
30
30
00
00
ff
ff
00
00
ff
ff
00
00
0e
04
ENDCHAR
STARTCHAR ScriptA
ENCODING 97
SWIDTH 514 0
DWIDTH 8 0
BBX 7 7 1 0
BITMAP
3c
4c
c8
88
98
be
d8
ENDCHAR
STARTCHAR ScriptB
ENCODING 98
SWIDTH 568 0
DWIDTH 9 0
BBX 9 11 0 0
BITMAP
3800
1800
1800
1800
3380
3d80
3180
3100
6300
6600
f800
ENDCHAR
STARTCHAR ScriptC
ENCODING 99
SWIDTH 465 0
DWIDTH 7 0
BBX 7 7 0 0
BITMAP
1e
22
60
c0
c0
cc
70
ENDCHAR
STARTCHAR ScriptD
ENCODING 100
SWIDTH 625 0
DWIDTH 10 0
BBX 10 11 0 0
BITMAP
00c0
0180
0180
0180
0f80
3300
6300
4600
c600
de00
e700
ENDCHAR
STARTCHAR ScriptE
ENCODING 101
SWIDTH 493 0
DWIDTH 8 0
BBX 8 7 0 0
BITMAP
1e
73
46
f8
c0
c4
78
ENDCHAR
STARTCHAR ScriptF
ENCODING 102
SWIDTH 440 0
DWIDTH 7 0
BBX 9 13 0 -2
BITMAP
0380
0480
0800
1800
1e00
3000
3000
3000
3000
6000
6000
4000
8000
ENDCHAR
STARTCHAR ScriptG
ENCODING 103
SWIDTH 586 0
DWIDTH 9 0
BBX 9 11 0 -4
BITMAP
0700
1980
3100
2300
6700
6a00
7200
0600
0400
c800
f000
ENDCHAR
STARTCHAR ScriptH
ENCODING 104
SWIDTH 566 0
DWIDTH 9 0
BBX 9 11 0 0
BITMAP
3800
1800
1800
1180
3780
3900
3100
6300
6300
6380
c200
ENDCHAR
STARTCHAR ScriptI
ENCODING 105
SWIDTH 296 0
DWIDTH 5 0
BBX 4 10 0 0
BITMAP
10
20
20
e0
60
60
40
c0
e0
80
ENDCHAR
STARTCHAR ScriptJ
ENCODING 106
SWIDTH 341 0
DWIDTH 5 0
BBX 7 13 -2 -3
BITMAP
02
04
04
1e
0c
0c
0c
0c
18
18
10
a0
c0
ENDCHAR
STARTCHAR ScriptK
ENCODING 107
SWIDTH 490 0
DWIDTH 8 0
BBX 8 11 0 0
BITMAP
38
18
38
30
33
34
38
6c
6c
66
84
ENDCHAR
STARTCHAR ScriptL
ENCODING 108
SWIDTH 336 0
DWIDTH 5 0
BBX 4 11 1 0
BITMAP
10
70
30
20
20
60
40
40
c0
e0
80
ENDCHAR
STARTCHAR ScriptM
ENCODING 109
SWIDTH 800 0
DWIDTH 13 0
BBX 13 7 0 0
BITMAP
7198
bf78
7398
6310
6330
c638
8420
ENDCHAR
STARTCHAR ScriptN
ENCODING 110
SWIDTH 545 0
DWIDTH 9 0
BBX 8 7 0 0
BITMAP
73
ef
73
62
46
c7
84
ENDCHAR
STARTCHAR ScriptO
ENCODING 111
SWIDTH 551 0
DWIDTH 9 0
BBX 7 7 1 0
BITMAP
1c
26
46
c6
c4
c8
70
ENDCHAR
STARTCHAR ScriptP
ENCODING 112
SWIDTH 575 0
DWIDTH 9 0
BBX 9 12 0 -4
BITMAP
1000
7380
3d80
3180
3100
2300
6600
f800
6000
c000
c000
8000
ENDCHAR
STARTCHAR ScriptQ
ENCODING 113
SWIDTH 550 0
DWIDTH 9 0
BBX 9 11 0 -4
BITMAP
0f00
3380
6300
6300
c700
de00
e600
0600
0600
0e00
0800
ENDCHAR
STARTCHAR ScriptR
ENCODING 114
SWIDTH 429 0
DWIDTH 7 0
BBX 7 7 0 0
BITMAP
ec
72
60
40
40
c0
80
ENDCHAR
STARTCHAR ScriptS
ENCODING 115
SWIDTH 416 0
DWIDTH 7 0
BBX 6 7 0 0
BITMAP
1c
64
70
38
0c
48
f0
ENDCHAR
STARTCHAR ScriptT
ENCODING 116
SWIDTH 347 0
DWIDTH 6 0
BBX 5 10 0 0
BITMAP
10
30
30
78
60
60
c0
c0
d8
e0
ENDCHAR
STARTCHAR ScriptU
ENCODING 117
SWIDTH 566 0
DWIDTH 9 0
BBX 8 7 0 0
BITMAP
23
e3
66
46
ce
f7
c4
ENDCHAR
STARTCHAR ScriptV
ENCODING 118
SWIDTH 536 0
DWIDTH 9 0
BBX 8 7 1 0
BITMAP
e3
63
62
24
34
38
20
ENDCHAR
STARTCHAR ScriptW
ENCODING 119
SWIDTH 806 0
DWIDTH 13 0
BBX 13 7 0 0
BITMAP
1118
f310
3390
35a0
39c0
3980
2100
ENDCHAR
STARTCHAR ScriptX
ENCODING 120
SWIDTH 598 0
DWIDTH 10 0
BBX 9 8 0 0
BITMAP
0b80
1b00
0e00
0800
1c00
2c00
4700
e400
ENDCHAR
STARTCHAR ScriptY
ENCODING 121
SWIDTH 570 0
DWIDTH 9 0
BBX 9 11 0 -3
BITMAP
1080
7180
3180
3300
2300
6700
6b00
7200
0600
8800
f000
ENDCHAR
STARTCHAR ScriptZ
ENCODING 122
SWIDTH 571 0
DWIDTH 9 0
BBX 9 7 1 0
BITMAP
3900
5e00
0400
0800
3000
e080
1f00
ENDCHAR
STARTCHAR ScriptAltL
ENCODING 123
SWIDTH 458 0
DWIDTH 7 0
BBX 6 10 1 0
BITMAP
0c
14
34
68
70
60
c0
c0
c0
e0
ENDCHAR
STARTCHAR LogicalNand
ENCODING 124
SWIDTH 669 0
DWIDTH 11 0
BBX 9 11 1 0
BITMAP
7f00
0000
1c00
3600
2200
2200
6300
4100
4100
c180
c180
ENDCHAR
STARTCHAR Nand2
ENCODING 125
SWIDTH 840 0
DWIDTH 13 0
BBX 12 14 1 -2
BITMAP
7fe0
7fe0
0000
0f00
1f80
1980
1080
30c0
30c0
6060
6060
4060
c030
c030
ENDCHAR
STARTCHAR Nand3
ENCODING 126
SWIDTH 1256 0
DWIDTH 20 0
BBX 18 25 1 -7
BITMAP
7fff80
7fff80
000000
000000
000000
03f000
03f000
061800
061800
061800
0c0c00
0c0c00
0c0c00
180400
180600
180600
300200
300300
300300
200100
600180
600180
600180
c000c0
c000c0
ENDCHAR
STARTCHAR DEL
ENCODING 127
SWIDTH 189 0
DWIDTH 3 0
BBX 0 0 0 0
BITMAP
ENDCHAR
STARTCHAR LogicalNor
ENCODING 128
SWIDTH 669 0
DWIDTH 11 0
BBX 9 11 1 0
BITMAP
7f00
0000
c180
c180
4100
4300
6300
2200
2200
3600
1c00
ENDCHAR
STARTCHAR Nor2
ENCODING 129
SWIDTH 840 0
DWIDTH 13 0
BBX 12 15 1 -3
BITMAP
7fe0
7fe0
0000
c030
c030
4020
6060
6060
2040
30c0
30c0
1080
1980
1f80
0f00
ENDCHAR
STARTCHAR Nor3
ENCODING 130
SWIDTH 1256 0
DWIDTH 20 0
BBX 18 25 1 -7
BITMAP
7fff80
7fff80
000000
000000
000000
000000
c000c0
c000c0
600180
600180
600180
300300
300300
300300
180600
180600
180600
0c0c00
0c0c00
0c0c00
061800
061800
061800
03f000
03f000
ENDCHAR
STARTCHAR LogicalXor
ENCODING 131
SWIDTH 669 0
DWIDTH 11 0
BBX 9 11 1 0
BITMAP
c180
c180
4100
4100
6300
2200
2200
3600
1c00
0000
7f00
ENDCHAR
STARTCHAR Xor2
ENCODING 132
SWIDTH 840 0
DWIDTH 13 0
BBX 12 14 1 -2
BITMAP
c030
c030
4020
6060
6060
2040
30c0
30c0
1080
1980
1f80
0f00
7fe0
7fe0
ENDCHAR
STARTCHAR Xor3
ENCODING 133
SWIDTH 1256 0
DWIDTH 20 0
BBX 18 25 1 -7
BITMAP
c000c0
c000c0
600180
600180
600180
200100
300300
300300
100200
180600
180600
180600
0c0c00
0c0c00
0c0c00
061800
061800
061800
03f000
03f000
000000
000000
000000
7fff80
7fff80
ENDCHAR
STARTCHAR ConstantC
ENCODING 134
SWIDTH 572 0
DWIDTH 9 0
BBX 7 7 1 0
BITMAP
1c
36
76
60
e0
e4
78
ENDCHAR
STARTCHAR LongEqual
ENCODING 135
SWIDTH 856 0
DWIDTH 14 0
BBX 12 6 1 1
BITMAP
fff0
fff0
0000
0000
fff0
fff0
ENDCHAR
STARTCHAR Diffd2
ENCODING 136
SWIDTH 500 0
DWIDTH 8 0
BBX 8 11 0 0
BITMAP
07
03
03
02
1e
36
66
c4
cc
df
ec
ENDCHAR
STARTCHAR Expe2
ENCODING 137
SWIDTH 444 0
DWIDTH 7 0
BBX 7 7 0 0
BITMAP
0c
32
66
dc
e0
c4
78
ENDCHAR
STARTCHAR Imagi2
ENCODING 138
SWIDTH 278 0
DWIDTH 4 0
BBX 4 11 1 0
BITMAP
30
30
00
10
e0
60
60
c0
d0
f0
c0
ENDCHAR
STARTCHAR Imagj2
ENCODING 139
SWIDTH 278 0
DWIDTH 4 0
BBX 8 14 -3 -3
BITMAP
03
03
00
0a
06
06
06
0c
0c
0c
08
58
d0
60
ENDCHAR
STARTCHAR CapitalCAcute
ENCODING 140
SWIDTH 722 0
DWIDTH 12 0
BBX 11 15 1 0
BITMAP
0100
0300
0400
0000
1e40
31c0
7040
e040
e000
e000
e000
e000
7060
3080
1f00
ENDCHAR
STARTCHAR CapitalCHacek
ENCODING 141
SWIDTH 722 0
DWIDTH 12 0
BBX 11 15 1 0
BITMAP
1100
0a00
0600
0000
1e40
31c0
7040
e040
e000
e000
e000
e000
7060
3080
1f00
ENDCHAR
STARTCHAR EBar
ENCODING 142
SWIDTH 444 0
DWIDTH 7 0
BBX 7 10 0 0
BITMAP
fc
00
38
6c
c6
fe
c0
c0
e2
7c
ENDCHAR
STARTCHAR ECup
ENCODING 143
SWIDTH 444 0
DWIDTH 7 0
BBX 7 11 0 0
BITMAP
44
78
00
38
6c
c6
fe
c0
c0
e2
7c
ENDCHAR
STARTCHAR CapitalEBar
ENCODING 144
SWIDTH 667 0
DWIDTH 11 0
BBX 10 13 0 0
BITMAP
1f00
0000
ffc0
38c0
3840
3900
3900
3f00
3900
3900
3840
38c0
ffc0
ENDCHAR
STARTCHAR CapitalECup
ENCODING 145
SWIDTH 667 0
DWIDTH 11 0
BBX 10 14 0 0
BITMAP
0900
0f00
0000
ffc0
38c0
3840
3900
3900
3f00
3900
3900
3840
38c0
ffc0
ENDCHAR
STARTCHAR ICup
ENCODING 146
SWIDTH 278 0
DWIDTH 4 0
BBX 4 11 0 0
BITMAP
90
f0
00
e0
60
60
60
60
60
60
f0
ENDCHAR
STARTCHAR CapitalICup
ENCODING 147
SWIDTH 389 0
DWIDTH 6 0
BBX 5 14 1 0
BITMAP
88
70
00
f8
70
70
70
70
70
70
70
70
70
f8
ENDCHAR
STARTCHAR LSlash
ENCODING 148
SWIDTH 278 0
DWIDTH 4 0
BBX 6 11 0 0
BITMAP
f0
70
74
78
70
70
f0
70
70
70
f0
ENDCHAR
STARTCHAR CapitalLSlash
ENCODING 149
SWIDTH 667 0
DWIDTH 11 0
BBX 11 11 0 0
BITMAP
fe00
3800
3800
3b00
3c00
3800
7800
b820
3840
38c0
ffc0
ENDCHAR
STARTCHAR Mercury
ENCODING 150
SWIDTH 410 0
DWIDTH 7 0
BBX 6 11 0 0
BITMAP
84
cc
78
cc
84
84
fc
30
fc
fc
30
ENDCHAR
STARTCHAR Venus
ENCODING 151
SWIDTH 531 0
DWIDTH 8 0
BBX 8 11 0 0
BITMAP
3c
66
c3
81
81
c3
7e
18
7e
7e
18
ENDCHAR
STARTCHAR Earth
ENCODING 152
SWIDTH 545 0
DWIDTH 9 0
BBX 8 11 1 0
BITMAP
18
7e
7e
18
7e
c3
81
81
c3
66
3c
ENDCHAR
STARTCHAR Mars
ENCODING 153
SWIDTH 649 0
DWIDTH 10 0
BBX 9 9 0 0
BITMAP
0780
0180
7f80
c680
8200
8200
8200
4600
3800
ENDCHAR
STARTCHAR Jupiter
ENCODING 154
SWIDTH 679 0
DWIDTH 11 0
BBX 10 13 1 -2
BITMAP
0040
3c40
7f40
c340
c140
c1c0
0140
0340
0740
1c40
ffc0
0040
0040
ENDCHAR
STARTCHAR Saturn
ENCODING 155
SWIDTH 583 0
DWIDTH 9 0
BBX 8 11 1 0
BITMAP
40
40
f0
44
5f
61
41
41
42
42
42
ENDCHAR
STARTCHAR Uranus
ENCODING 156
SWIDTH 634 0
DWIDTH 10 0
BBX 9 11 1 0
BITMAP
c980
4900
4900
7f00
4900
4900
4900
c980
1400
1400
1c00
ENDCHAR
STARTCHAR Neptune
ENCODING 157
SWIDTH 791 0
DWIDTH 13 0
BBX 12 13 1 -2
BITMAP
0e00
1f00
64c0
f5e0
c550
4440
64c0
2480
1f00
0400
1f80
0400
0400
ENDCHAR
STARTCHAR Pluto
ENCODING 158
SWIDTH 589 0
DWIDTH 9 0
BBX 8 13 1 -2
BITMAP
fc
c7
c3
c1
c1
c3
c7
fe
c0
c0
c0
c0
ff
ENDCHAR
STARTCHAR udieresis
ENCODING 159
SWIDTH 772 0
DWIDTH 12 0
BBX 12 11 0 0
BITMAP
0f00
30c0
6060
c030
8010
8610
8610
8010
4020
30c0
1f80
ENDCHAR
STARTCHAR dagger
ENCODING 160
SWIDTH 380 0
DWIDTH 6 0
BBX 5 7 1 0
BITMAP
88
90
b0
f0
b0
90
88
ENDCHAR
STARTCHAR LastPage
ENCODING 161
SWIDTH 380 0
DWIDTH 6 0
BBX 4 7 1 0
BITMAP
90
90
d0
f0
d0
90
90
ENDCHAR
STARTCHAR SolidLeftTriangle
ENCODING 162
SWIDTH 634 0
DWIDTH 10 0
BBX 8 9 1 0
BITMAP
01
07
0f
3f
ff
3f
0f
07
01
ENDCHAR
STARTCHAR SolidRightTriangle
ENCODING 163
SWIDTH 634 0
DWIDTH 10 0
BBX 8 9 1 0
BITMAP
80
e0
f0
fc
ff
fc
f0
e0
80
ENDCHAR
STARTCHAR QuarterNote
ENCODING 164
SWIDTH 400 0
DWIDTH 6 0
BBX 6 12 0 0
BITMAP
04
04
04
04
04
04
04
04
04
74
fc
78
ENDCHAR
STARTCHAR EigthNote
ENCODING 165
SWIDTH 616 0
DWIDTH 10 0
BBX 10 12 0 0
BITMAP
0400
0700
0500
0480
0440
0400
0400
0400
0400
7400
fc00
7800
ENDCHAR
STARTCHAR BeamedEighthNote
ENCODING 166
SWIDTH 905 0
DWIDTH 14 0
BBX 13 12 1 0
BITMAP
0ff8
0808
0808
0808
0808
0808
0808
0808
0808
e8e8
f9f8
f0f0
ENDCHAR
STARTCHAR BeamedSixteenthNote
ENCODING 167
SWIDTH 905 0
DWIDTH 14 0
BBX 13 12 1 0
BITMAP
0ff8
0808
0808
0ff8
0808
0808
0808
0808
0808
e8e8
f9f8
f0f0
ENDCHAR
STARTCHAR EntityStart
ENCODING 168
SWIDTH 778 0
DWIDTH 12 0
BBX 10 12 1 -2
BITMAP
ffc0
8100
8900
9500
9500
9d00
9f00
af00
e500
bf00
8100
ffc0
ENDCHAR
STARTCHAR EntityEnd
ENCODING 169
SWIDTH 778 0
DWIDTH 12 0
BBX 10 12 2 -2
BITMAP
ffc0
4040
4040
4040
4040
4440
4c40
4040
4c40
4440
4c40
ffc0
ENDCHAR
STARTCHAR trademark
ENCODING 170
SWIDTH 674 0
DWIDTH 11 0
BBX 9 10 3 1
BITMAP
0080
0100
0300
0600
0400
0800
d800
d000
7000
2000
ENDCHAR
STARTCHAR acute
ENCODING 171
SWIDTH 674 0
DWIDTH 11 0
BBX 10 11 1 0
BITMAP
0040
0080
ff00
8180
8280
a680
b480
9c80
9880
8080
ff80
ENDCHAR
STARTCHAR dieresis
ENCODING 172
SWIDTH 364 0
DWIDTH 6 0
BBX 4 5 1 6
BITMAP
f0
60
60
60
60
ENDCHAR
STARTCHAR notequal
ENCODING 173
SWIDTH 364 0
DWIDTH 6 0
BBX 5 5 0 6
BITMAP
20
f8
20
f8
20
ENDCHAR
STARTCHAR AE
ENCODING 174
SWIDTH 429 0
DWIDTH 7 0
BBX 7 5 0 6
BITMAP
ee
44
7c
44
ee
ENDCHAR
STARTCHAR Oslash
ENCODING 175
SWIDTH 597 0
DWIDTH 10 0
BBX 4 10 4 0
BITMAP
10
20
40
c0
c0
c0
c0
c0
c0
c0
ENDCHAR
STARTCHAR infinity
ENCODING 176
SWIDTH 597 0
DWIDTH 10 0
BBX 5 12 1 -2
BITMAP
18
18
18
30
30
60
e0
30
30
18
18
18
ENDCHAR
STARTCHAR plusminus
ENCODING 177
SWIDTH 597 0
DWIDTH 10 0
BBX 4 11 4 0
BITMAP
c0
c0
c0
c0
c0
c0
c0
40
40
20
10
ENDCHAR
STARTCHAR lessequal
ENCODING 178
SWIDTH 597 0
DWIDTH 10 0
BBX 2 5 4 0
BITMAP
c0
c0
c0
c0
c0
ENDCHAR
STARTCHAR greaterequal
ENCODING 179
SWIDTH 372 0
DWIDTH 6 0
BBX 4 14 1 -3
BITMAP
30
60
60
60
60
60
c0
60
60
60
60
60
20
10
ENDCHAR
STARTCHAR yen
ENCODING 180
SWIDTH 384 0
DWIDTH 6 0
BBX 4 20 1 -6
BITMAP
10
20
60
60
60
60
60
60
60
c0
c0
60
60
60
60
60
60
60
20
30
ENDCHAR
STARTCHAR mu
ENCODING 181
SWIDTH 484 0
DWIDTH 8 0
BBX 6 27 1 -9
BITMAP
04
08
10
10
30
30
30
30
30
30
30
20
60
c0
60
20
30
30
30
30
30
30
30
10
10
08
0c
ENDCHAR
STARTCHAR partialdiff
ENCODING 182
SWIDTH 599 0
DWIDTH 10 0
BBX 7 34 1 -13
BITMAP
02
04
0c
08
18
18
18
18
18
18
18
18
18
18
30
30
60
e0
30
30
18
18
18
18
18
18
18
18
18
18
08
0c
04
02
ENDCHAR
STARTCHAR summation
ENCODING 183
SWIDTH 870 0
DWIDTH 14 0
BBX 12 8 1 0
BITMAP
1000
3000
6000
e000
fb90
6000
3000
1000
ENDCHAR
STARTCHAR product
ENCODING 184
SWIDTH 590 0
DWIDTH 9 0
BBX 7 12 1 0
BITMAP
10
38
7c
d6
10
00
10
10
10
00
00
10
ENDCHAR
STARTCHAR pi
ENCODING 185
SWIDTH 870 0
DWIDTH 14 0
BBX 12 8 1 0
BITMAP
0080
00c0
00c0
0060
9df0
0060
00c0
0080
ENDCHAR
STARTCHAR integral
ENCODING 186
SWIDTH 590 0
DWIDTH 9 0
BBX 7 12 1 0
BITMAP
10
00
00
10
10
10
00
10
d6
7c
38
10
ENDCHAR
STARTCHAR ordfeminine
ENCODING 187
SWIDTH 900 0
DWIDTH 14 0
BBX 12 6 1 1
BITMAP
fff0
8010
8010
a230
8010
fff0
ENDCHAR
STARTCHAR ordmasculine
ENCODING 188
SWIDTH 900 0
DWIDTH 14 0
BBX 6 12 4 -2
BITMAP
fc
84
94
84
84
84
94
84
84
94
84
fc
ENDCHAR
STARTCHAR Omega
ENCODING 189
SWIDTH 900 0
DWIDTH 14 0
BBX 12 12 1 -2
BITMAP
f000
8800
8400
da00
6100
2280
1240
0820
04d0
0200
0100
0080
ENDCHAR
STARTCHAR ae
ENCODING 190
SWIDTH 364 0
DWIDTH 6 0
BBX 5 6 0 5
BITMAP
20
20
f8
20
20
20
ENDCHAR
STARTCHAR oslash
ENCODING 191
SWIDTH 189 0
DWIDTH 3 0
BBX 0 0 0 0
BITMAP
ENDCHAR
STARTCHAR questiondown
ENCODING 192
SWIDTH 189 0
DWIDTH 3 0
BBX 0 0 0 0
BITMAP
ENDCHAR
STARTCHAR exclamdown
ENCODING 193
SWIDTH 189 0
DWIDTH 3 0
BBX 0 0 0 0
BITMAP
ENDCHAR
STARTCHAR logicalnot
ENCODING 194
SWIDTH 189 0
DWIDTH 3 0
BBX 0 0 0 0
BITMAP
ENDCHAR
STARTCHAR radical
ENCODING 195
SWIDTH 189 0
DWIDTH 3 0
BBX 0 0 0 0
BITMAP
ENDCHAR
STARTCHAR florin
ENCODING 196
SWIDTH 189 0
DWIDTH 3 0
BBX 0 0 0 0
BITMAP
ENDCHAR
STARTCHAR approxequal
ENCODING 197
SWIDTH 189 0
DWIDTH 3 0
BBX 0 0 0 0
BITMAP
ENDCHAR
STARTCHAR Delta
ENCODING 198
SWIDTH 189 0
DWIDTH 3 0
BBX 0 0 0 0
BITMAP
ENDCHAR
STARTCHAR guillemotleft
ENCODING 199
SWIDTH 189 0
DWIDTH 3 0
BBX 0 0 0 0
BITMAP
ENDCHAR
STARTCHAR guillemotright
ENCODING 200
SWIDTH 189 0
DWIDTH 3 0
BBX 0 0 0 0
BITMAP
ENDCHAR
STARTCHAR ellipsis
ENCODING 201
SWIDTH 189 0
DWIDTH 3 0
BBX 0 0 0 0
BITMAP
ENDCHAR
STARTCHAR nbspace
ENCODING 202
SWIDTH 189 0
DWIDTH 3 0
BBX 0 0 0 0
BITMAP
ENDCHAR
STARTCHAR Agrave
ENCODING 203
SWIDTH 189 0
DWIDTH 3 0
BBX 0 0 0 0
BITMAP
ENDCHAR
STARTCHAR Atilde
ENCODING 204
SWIDTH 189 0
DWIDTH 3 0
BBX 0 0 0 0
BITMAP
ENDCHAR
STARTCHAR Otilde
ENCODING 205
SWIDTH 189 0
DWIDTH 3 0
BBX 0 0 0 0
BITMAP
ENDCHAR
STARTCHAR parenright
ENCODING 206
SWIDTH 189 0
DWIDTH 3 0
BBX 0 0 0 0
BITMAP
ENDCHAR
STARTCHAR oe
ENCODING 207
SWIDTH 189 0
DWIDTH 3 0
BBX 0 0 0 0
BITMAP
ENDCHAR
STARTCHAR endash
ENCODING 208
SWIDTH 189 0
DWIDTH 3 0
BBX 0 0 0 0
BITMAP
ENDCHAR
STARTCHAR emdash
ENCODING 209
SWIDTH 189 0
DWIDTH 3 0
BBX 0 0 0 0
BITMAP
ENDCHAR
STARTCHAR quotedblleft
ENCODING 210
SWIDTH 189 0
DWIDTH 3 0
BBX 0 0 0 0
BITMAP
ENDCHAR
STARTCHAR quotedblright
ENCODING 211
SWIDTH 189 0
DWIDTH 3 0
BBX 0 0 0 0
BITMAP
ENDCHAR
STARTCHAR quoteleft
ENCODING 212
SWIDTH 189 0
DWIDTH 3 0
BBX 0 0 0 0
BITMAP
ENDCHAR
STARTCHAR quoteright
ENCODING 213
SWIDTH 189 0
DWIDTH 3 0
BBX 0 0 0 0
BITMAP
ENDCHAR
STARTCHAR divide
ENCODING 214
SWIDTH 189 0
DWIDTH 3 0
BBX 0 0 0 0
BITMAP
ENDCHAR
STARTCHAR lozenge
ENCODING 215
SWIDTH 189 0
DWIDTH 3 0
BBX 0 0 0 0
BITMAP
ENDCHAR
STARTCHAR ydieresis
ENCODING 216
SWIDTH 189 0
DWIDTH 3 0
BBX 0 0 0 0
BITMAP
ENDCHAR
STARTCHAR Ydieresis
ENCODING 217
SWIDTH 189 0
DWIDTH 3 0
BBX 0 0 0 0
BITMAP
ENDCHAR
STARTCHAR fraction
ENCODING 218
SWIDTH 189 0
DWIDTH 3 0
BBX 0 0 0 0
BITMAP
ENDCHAR
STARTCHAR currency
ENCODING 219
SWIDTH 189 0
DWIDTH 3 0
BBX 0 0 0 0
BITMAP
ENDCHAR
STARTCHAR guilsinglleft
ENCODING 220
SWIDTH 189 0
DWIDTH 3 0
BBX 0 0 0 0
BITMAP
ENDCHAR
STARTCHAR guilsinglright
ENCODING 221
SWIDTH 189 0
DWIDTH 3 0
BBX 0 0 0 0
BITMAP
ENDCHAR
STARTCHAR fi
ENCODING 222
SWIDTH 189 0
DWIDTH 3 0
BBX 0 0 0 0
BITMAP
ENDCHAR
STARTCHAR fl
ENCODING 223
SWIDTH 189 0
DWIDTH 3 0
BBX 0 0 0 0
BITMAP
ENDCHAR
STARTCHAR daggerdbl
ENCODING 224
SWIDTH 189 0
DWIDTH 3 0
BBX 0 0 0 0
BITMAP
ENDCHAR
STARTCHAR periodcentered
ENCODING 225
SWIDTH 189 0
DWIDTH 3 0
BBX 0 0 0 0
BITMAP
ENDCHAR
STARTCHAR quotesinglbase
ENCODING 226
SWIDTH 189 0
DWIDTH 3 0
BBX 0 0 0 0
BITMAP
ENDCHAR
STARTCHAR quotedblbase
ENCODING 227
SWIDTH 189 0
DWIDTH 3 0
BBX 0 0 0 0
BITMAP
ENDCHAR
STARTCHAR perthousand
ENCODING 228
SWIDTH 189 0
DWIDTH 3 0
BBX 0 0 0 0
BITMAP
ENDCHAR
STARTCHAR Acircumflex
ENCODING 229
SWIDTH 189 0
DWIDTH 3 0
BBX 0 0 0 0
BITMAP
ENDCHAR
STARTCHAR Ecircumflex
ENCODING 230
SWIDTH 189 0
DWIDTH 3 0
BBX 0 0 0 0
BITMAP
ENDCHAR
STARTCHAR Aacute
ENCODING 231
SWIDTH 189 0
DWIDTH 3 0
BBX 0 0 0 0
BITMAP
ENDCHAR
STARTCHAR Edieresis
ENCODING 232
SWIDTH 189 0
DWIDTH 3 0
BBX 0 0 0 0
BITMAP
ENDCHAR
STARTCHAR Egrave
ENCODING 233
SWIDTH 189 0
DWIDTH 3 0
BBX 0 0 0 0
BITMAP
ENDCHAR
STARTCHAR Iacute
ENCODING 234
SWIDTH 189 0
DWIDTH 3 0
BBX 0 0 0 0
BITMAP
ENDCHAR
STARTCHAR Icircumflex
ENCODING 235
SWIDTH 189 0
DWIDTH 3 0
BBX 0 0 0 0
BITMAP
ENDCHAR
STARTCHAR Idieresis
ENCODING 236
SWIDTH 189 0
DWIDTH 3 0
BBX 0 0 0 0
BITMAP
ENDCHAR
STARTCHAR Igrave
ENCODING 237
SWIDTH 189 0
DWIDTH 3 0
BBX 0 0 0 0
BITMAP
ENDCHAR
STARTCHAR Oacute
ENCODING 238
SWIDTH 189 0
DWIDTH 3 0
BBX 0 0 0 0
BITMAP
ENDCHAR
STARTCHAR Ocircumflex
ENCODING 239
SWIDTH 189 0
DWIDTH 3 0
BBX 0 0 0 0
BITMAP
ENDCHAR
STARTCHAR apple
ENCODING 240
SWIDTH 189 0
DWIDTH 3 0
BBX 0 0 0 0
BITMAP
ENDCHAR
STARTCHAR Ograve
ENCODING 241
SWIDTH 189 0
DWIDTH 3 0
BBX 0 0 0 0
BITMAP
ENDCHAR
STARTCHAR Uacute
ENCODING 242
SWIDTH 189 0
DWIDTH 3 0
BBX 0 0 0 0
BITMAP
ENDCHAR
STARTCHAR Ucircumflex
ENCODING 243
SWIDTH 189 0
DWIDTH 3 0
BBX 0 0 0 0
BITMAP
ENDCHAR
STARTCHAR Ugrave
ENCODING 244
SWIDTH 189 0
DWIDTH 3 0
BBX 0 0 0 0
BITMAP
ENDCHAR
STARTCHAR dotlessi
ENCODING 245
SWIDTH 189 0
DWIDTH 3 0
BBX 0 0 0 0
BITMAP
ENDCHAR
STARTCHAR circumflex
ENCODING 246
SWIDTH 189 0
DWIDTH 3 0
BBX 0 0 0 0
BITMAP
ENDCHAR
STARTCHAR CurlyQuote
ENCODING 247
SWIDTH 378 0
DWIDTH 6 0
BBX 2 4 2 7
BITMAP
c0
c0
40
80
ENDCHAR
STARTCHAR CurlyDblQuote
ENCODING 248
SWIDTH 524 0
DWIDTH 8 0
BBX 7 4 1 7
BITMAP
ce
ce
42
84
ENDCHAR
STARTCHAR CurlyBackQuote
ENCODING 249
SWIDTH 378 0
DWIDTH 6 0
BBX 3 4 1 7
BITMAP
60
40
e0
e0
ENDCHAR
STARTCHAR CurlyDblBackQuote
ENCODING 250
SWIDTH 524 0
DWIDTH 8 0
BBX 8 4 0 7
BITMAP
63
42
e7
e7
ENDCHAR
STARTCHAR StrikeCircle
ENCODING 251
SWIDTH 600 0
DWIDTH 10 0
BBX 9 9 0 0
BITMAP
1c00
6300
4100
8080
8080
8080
4100
6300
1c00
ENDCHAR
STARTCHAR StrikeSquare
ENCODING 252
SWIDTH 600 0
DWIDTH 10 0
BBX 9 9 0 0
BITMAP
ff80
8080
8080
8080
8080
8080
8080
8080
ff80
ENDCHAR
STARTCHAR StrikeTriangle
ENCODING 253
SWIDTH 600 0
DWIDTH 10 0
BBX 8 9 1 0
BITMAP
08
18
14
24
22
42
41
81
ff
ENDCHAR
STARTCHAR MathLogo1
ENCODING 254
SWIDTH 2776 0
DWIDTH 44 0
BBX 45 11 1 0
BITMAP
383800000000
183008200000
18609ffefbf8
186181042100
1ca1810c2320
3ca1c30c6320
2522430fe3e0
2523c30c6220
262442084200
446442184218
e4fcffbffff0
ENDCHAR
STARTCHAR MathLogo2
ENCODING 255
SWIDTH 2981 0
DWIDTH 48 0
BBX 47 10 0 0
BITMAP
000008200004
38708fef3c2a
18619124626e
18a18104c26c
18e283048060
2942820580a0
2d47c20980f0
264442098110
444842088910
e5fcef3c7738
ENDCHAR
ENDFONT
